<svg xmlns="http://www.w3.org/2000/svg" viewBox="0 0 960 380" font-family="'Inter', 'Helvetica Neue', Arial, sans-serif">
  <defs>
    <marker id="arr" markerWidth="8" markerHeight="6" refX="8" refY="3" orient="auto">
      <path d="M0,0 L8,3 L0,6" fill="#64748b"/>
    </marker>
    <marker id="arr-g" markerWidth="8" markerHeight="6" refX="8" refY="3" orient="auto">
      <path d="M0,0 L8,3 L0,6" fill="#16a34a"/>
    </marker>
    <marker id="arr-r" markerWidth="8" markerHeight="6" refX="8" refY="3" orient="auto">
      <path d="M0,0 L8,3 L0,6" fill="#dc2626"/>
    </marker>
  </defs>

  <rect width="960" height="380" fill="#fafafa" rx="6"/>

  <!-- AI Agent -->
  <rect x="20" y="105" width="130" height="56" rx="8" fill="#1e293b"/>
  <text x="85" y="129" text-anchor="middle" fill="#f8fafc" font-size="13" font-weight="600">AI Agent</text>
  <text x="85" y="147" text-anchor="middle" fill="#94a3b8" font-size="10">HTTP_PROXY set</text>

  <!-- CrabTrap boundary -->
  <rect x="185" y="15" width="520" height="300" rx="10" fill="none" stroke="#cbd5e1" stroke-width="1.5" stroke-dasharray="6,4"/>
  <text x="445" y="35" text-anchor="middle" fill="#475569" font-size="13" font-weight="700" letter-spacing="0.5">CRABTRAP</text>

  <!-- TLS -->
  <rect x="210" y="110" width="110" height="44" rx="6" fill="#f1f5f9" stroke="#cbd5e1" stroke-width="1"/>
  <text x="265" y="129" text-anchor="middle" fill="#475569" font-size="11" font-weight="600">TLS</text>
  <text x="265" y="144" text-anchor="middle" fill="#94a3b8" font-size="9">Decrypt request</text>

  <!-- Static Rules -->
  <rect x="348" y="110" width="125" height="44" rx="6" fill="#fff" stroke="#e2e8f0" stroke-width="1.5"/>
  <text x="410" y="129" text-anchor="middle" fill="#1e293b" font-size="11" font-weight="600">Static Rules</text>
  <text x="410" y="144" text-anchor="middle" fill="#94a3b8" font-size="9">URL patterns</text>

  <!-- LLM Judge -->
  <rect x="500" y="110" width="130" height="44" rx="6" fill="#fff" stroke="#e2e8f0" stroke-width="1.5"/>
  <text x="565" y="129" text-anchor="middle" fill="#1e293b" font-size="11" font-weight="600">LLM Judge</text>
  <text x="565" y="144" text-anchor="middle" fill="#94a3b8" font-size="9">Policy evaluation</text>

  <!-- Audit Log -->
  <rect x="210" y="290" width="480" height="24" rx="4" fill="#f1f5f9" stroke="#cbd5e1" stroke-width="1"/>
  <text x="450" y="306" text-anchor="middle" fill="#475569" font-size="10" font-weight="600">AUDIT LOG — every request and decision logged</text>

  <!-- External API -->
  <rect x="740" y="105" width="135" height="56" rx="8" fill="#1e293b"/>
  <text x="807" y="129" text-anchor="middle" fill="#f8fafc" font-size="13" font-weight="600">External API</text>
  <text x="807" y="147" text-anchor="middle" fill="#94a3b8" font-size="10">Slack, Gmail, etc.</text>

  <!-- Agent → TLS -->
  <line x1="150" y1="133" x2="208" y2="133" stroke="#64748b" stroke-width="1.5" marker-end="url(#arr)"/>

  <!-- TLS → Static Rules -->
  <line x1="320" y1="132" x2="346" y2="132" stroke="#64748b" stroke-width="1.5" marker-end="url(#arr)"/>

  <!-- Static Rules → LLM Judge (no match) -->
  <line x1="473" y1="132" x2="498" y2="132" stroke="#64748b" stroke-width="1.5" marker-end="url(#arr)"/>
  <text x="486" y="168" text-anchor="middle" fill="#94a3b8" font-size="9">no match</text>

  <!-- Static Rules → External API (static ALLOW, arc over LLM Judge) -->
  <polyline points="473,116 473,78 738,78 738,105" fill="none" stroke="#16a34a" stroke-width="1.5" marker-end="url(#arr-g)"/>
  <text x="600" y="72" text-anchor="middle" fill="#16a34a" font-size="10" font-weight="600">static ALLOW</text>

  <!-- LLM Judge → External API (ALLOW) -->
  <line x1="630" y1="132" x2="738" y2="132" stroke="#16a34a" stroke-width="1.5" marker-end="url(#arr-g)"/>
  <text x="684" y="124" text-anchor="middle" fill="#16a34a" font-size="10" font-weight="600">ALLOW</text>

  <!-- Response: API → Agent (inside CrabTrap boundary) -->
  <polyline points="807,105 807,52 85,52 85,105" fill="none" stroke="#16a34a" stroke-width="1.5" stroke-dasharray="6,3" marker-end="url(#arr-g)"/>
  <text x="445" y="47" text-anchor="middle" fill="#16a34a" font-size="10">response</text>

  <!-- DENY from Static Rules -->
  <line x1="410" y1="154" x2="410" y2="250" stroke="#dc2626" stroke-width="1.5"/>

  <!-- DENY from LLM Judge -->
  <line x1="565" y1="154" x2="565" y2="250" stroke="#dc2626" stroke-width="1.5"/>

  <!-- DENY horizontal path back to Agent -->
  <polyline points="565,250 85,250 85,161" fill="none" stroke="#dc2626" stroke-width="1.5" marker-end="url(#arr-r)"/>
  <text x="250" y="244" text-anchor="middle" fill="#dc2626" font-size="10" font-weight="600">DENY — 403</text>

</svg>
